<svg version="1.1" viewBox="0.0 0.0 233.30708661417322 242.61154855643045" fill="none" stroke="none" stroke-linecap="square" stroke-miterlimit="10" xmlns:xlink="http://www.w3.org/1999/xlink" xmlns="http://www.w3.org/2000/svg"><clipPath id="p.0"><path d="m0 0l233.30708 0l0 242.61154l-233.30708 0l0 -242.61154z" clip-rule="nonzero"/></clipPath><g clip-path="url(#p.0)"><path fill="#000000" fill-opacity="0.0" d="m0 0l233.30708 0l0 242.61154l-233.30708 0z" fill-rule="evenodd"/><path fill="#000000" fill-opacity="0.0" d="m8.215223 21.713278c53.37008 -0.9370079 81.33858 33.366142 109.30708 67.66929c27.968506 34.303154 55.93701 68.60629 109.30708 67.6693" fill-rule="evenodd"/><path stroke="#cc4125" stroke-width="24.0" stroke-linejoin="round" stroke-linecap="butt" d="m8.215223 21.713278c53.37008 -0.9370079 81.33858 33.366142 109.30708 67.66929c27.968506 34.303154 55.93701 68.60629 109.30708 67.6693" fill-rule="evenodd"/><path fill="#000000" fill-opacity="0.0" d="m61.3581 173.3879c41.181107 -0.724411 61.031494 -21.362213 80.88189 -42.0c19.850403 -20.637802 39.70079 -41.275597 80.8819 -42.0" fill-rule="evenodd"/><path stroke="#1155cc" stroke-width="24.0" stroke-linejoin="round" stroke-linecap="butt" d="m61.3581 173.3879c41.181107 -0.724411 61.031494 -21.362213 80.88189 -42.0c19.850403 -20.637802 39.70079 -41.275597 80.8819 -42.0" fill-rule="evenodd"/><path fill="#000000" fill-opacity="0.0" d="m8.215498 54.010777c53.37008 -0.9370079 81.33858 33.366146 109.30708 67.6693c27.968506 34.303146 55.93701 68.60629 109.30708 67.6693" fill-rule="evenodd"/><path stroke="#a64d79" stroke-width="24.0" stroke-linejoin="round" stroke-linecap="butt" d="m8.215498 54.010777c53.37008 -0.9370079 81.33858 33.366146 109.30708 67.6693c27.968506 34.303146 55.93701 68.60629 109.30708 67.6693" fill-rule="evenodd"/><path fill="#000000" fill-opacity="0.0" d="m62.143166 136.1055c41.181107 -0.724411 61.031494 -21.362213 80.88189 -42.000008c19.850403 -20.637794 39.70079 -41.27559 80.8819 -42.0" fill-rule="evenodd"/><path stroke="#6aa84f" stroke-width="24.0" stroke-linejoin="round" stroke-linecap="butt" d="m62.143166 136.1055c41.181107 -0.724411 61.031494 -21.362213 80.88189 -42.000008c19.850403 -20.637794 39.70079 -41.27559 80.8819 -42.0" fill-rule="evenodd"/><path fill="#000000" fill-opacity="0.0" d="m8.215415 84.919235c53.37008 -0.9370041 81.338585 33.366142 109.30708 67.6693c27.968513 34.303146 55.937004 68.60629 109.30709 67.66928" fill-rule="evenodd"/><path stroke="#f1c232" stroke-width="24.0" stroke-linejoin="round" stroke-linecap="butt" d="m8.215415 84.919235c53.37008 -0.9370041 81.338585 33.366142 109.30708 67.6693c27.968513 34.303146 55.937004 68.60629 109.30709 67.66928" fill-rule="evenodd"/></g></svg>